<svg width="116" height="64" viewBox="0 0 116 64" fill="none" xmlns="http://www.w3.org/2000/svg">
<rect width="116" height="64" fill="#1272DE"/>
<path d="M17 37.7686H19.7504V32.9417H20.5701C21.7177 32.9599 22.2459 33.3606 22.592 34.9089C22.9381 36.4207 23.2477 37.4043 23.4299 37.7686H26.2714C26.0346 37.295 25.6703 35.6921 25.2878 34.2896C24.9781 33.1603 24.5045 32.3588 23.6484 32.0127V31.9581C24.7049 31.5756 25.816 30.5009 25.816 28.9526C25.816 27.8233 25.4153 26.9672 24.6685 26.3843C23.7942 25.674 22.5191 25.4007 20.6976 25.4007C19.204 25.4007 17.8925 25.51 17 25.674V37.7686ZM19.7504 27.5683C19.9508 27.5137 20.3333 27.4772 21.0073 27.4772C22.2823 27.4772 23.0473 28.0601 23.0473 29.1712C23.0473 30.2459 22.2277 30.9381 20.8433 30.9381H19.7504V27.5683Z" fill="white"/>
<path d="M27.6152 37.714C28.2891 37.8051 29.3274 37.8961 30.7663 37.8961C33.1707 37.8961 35.1561 37.3861 36.4494 36.3114C37.6151 35.3096 38.4712 33.6885 38.4712 31.3388C38.4712 29.153 37.6698 27.6594 36.3947 26.7122C35.229 25.8379 33.6989 25.4007 31.3492 25.4007C29.9649 25.4007 28.6352 25.4918 27.6152 25.674V37.714ZM30.3838 27.6412C30.6206 27.5865 31.0396 27.5319 31.6406 27.5319C34.045 27.5319 35.5386 28.8798 35.5386 31.4299C35.5386 34.3625 33.8811 35.7468 31.3492 35.7286C31.0213 35.7286 30.6206 35.7286 30.3838 35.6739V27.6412Z" fill="white"/>
<path d="M43.1422 37.1858C43.8344 37.5683 45.2187 37.9508 46.6212 37.9508C49.991 37.9508 51.5575 36.2022 51.5575 34.1439C51.5575 32.4135 50.5557 31.2841 48.3881 30.4827C46.7852 29.8816 46.1112 29.5355 46.1112 28.7523C46.1112 28.133 46.6941 27.5683 47.8963 27.5683C49.0803 27.5683 49.9728 27.9144 50.4464 28.1512L51.0657 25.929C50.3371 25.5829 49.3353 25.3097 47.9327 25.3097C45.0548 25.3097 43.2879 26.8943 43.2879 28.9891C43.2879 30.7741 44.6358 31.9034 46.6759 32.632C48.1513 33.1421 48.7342 33.5792 48.7342 34.3442C48.7342 35.1457 48.0602 35.6739 46.7852 35.6739C45.6012 35.6739 44.4355 35.2914 43.7069 34.9089L43.1422 37.1858Z" fill="white"/>
<path d="M53.4729 27.1858V28.8616H52.2889V30.9016H53.4729V34.5446C53.4729 35.8014 53.7279 36.6575 54.2379 37.1858C54.6933 37.6411 55.4401 37.9508 56.3326 37.9508C57.0977 37.9508 57.7716 37.8415 58.1177 37.714L58.0995 35.6193C57.8445 35.6739 57.6623 35.6921 57.2798 35.6921C56.4601 35.6921 56.1869 35.2003 56.1869 34.1257V30.9016H58.1723V28.8616H56.1869V26.439L53.4729 27.1858Z" fill="white"/>
<path d="M67.01 32.5045C67.01 30.4098 66.081 28.6612 63.112 28.6612C61.4909 28.6612 60.2705 29.1166 59.6512 29.4626L60.1612 31.2295C60.744 30.8834 61.7094 30.5738 62.6202 30.5738C63.9863 30.5738 64.2413 31.2477 64.2413 31.7213V31.8306C61.0901 31.8306 59.0136 32.9235 59.0136 35.2368C59.0136 36.6575 60.0883 37.969 61.8916 37.969C62.948 37.969 63.8588 37.5865 64.4417 36.8761H64.4963L64.6602 37.7686H67.1557C67.0464 37.2768 67.01 36.4572 67.01 35.6193V32.5045ZM64.3324 34.5264C64.3324 34.6903 64.3142 34.8543 64.2777 35C64.0956 35.5646 63.5127 36.02 62.8388 36.02C62.2195 36.02 61.7459 35.6739 61.7459 34.9635C61.7459 33.9071 62.8752 33.561 64.3324 33.561V34.5264Z" fill="white"/>
<path d="M69.2779 27.1858V28.8616H68.0939V30.9016H69.2779V34.5446C69.2779 35.8014 69.5329 36.6575 70.0429 37.1858C70.4983 37.6411 71.2451 37.9508 72.1376 37.9508C72.9026 37.9508 73.5766 37.8415 73.9227 37.714L73.9044 35.6193C73.6494 35.6739 73.4673 35.6921 73.0848 35.6921C72.2651 35.6921 71.9919 35.2003 71.9919 34.1257V30.9016H73.9773V28.8616H71.9919V26.439L69.2779 27.1858Z" fill="white"/>
<path d="M78.1701 37.7686V28.8616H75.4015V37.7686H78.1701ZM76.7858 27.7687C77.6966 27.7687 78.2612 27.1494 78.2612 26.3843C78.243 25.6011 77.6966 25 76.804 25C75.9115 25 75.3286 25.6011 75.3286 26.3843C75.3286 27.1494 75.8933 27.7687 76.7676 27.7687H76.7858Z" fill="white"/>
<path d="M84.3343 37.969C86.7023 37.969 89.0155 36.4754 89.0155 33.2331C89.0155 30.5373 87.1941 28.6612 84.48 28.6612C81.6021 28.6612 79.7077 30.5009 79.7077 33.3788C79.7077 36.2568 81.7114 37.969 84.3161 37.969H84.3343ZM84.3708 35.9836C83.205 35.9836 82.5675 34.836 82.5675 33.3242C82.5675 31.9945 83.0775 30.6466 84.389 30.6466C85.6458 30.6466 86.1558 31.9945 86.1558 33.306C86.1558 34.9089 85.4819 35.9836 84.389 35.9836H84.3708Z" fill="white"/>
<path d="M90.5483 37.7686H93.317V32.632C93.317 32.377 93.3352 32.122 93.408 31.9399C93.6084 31.4299 94.0638 30.9016 94.8288 30.9016C95.8306 30.9016 96.2313 31.6849 96.2313 32.8324V37.7686H99V32.5045C99 29.8816 97.6339 28.6612 95.8124 28.6612C94.3188 28.6612 93.4262 29.5173 93.062 30.1002H93.0073L92.8798 28.8616H90.4754C90.5119 29.663 90.5483 30.592 90.5483 31.7031V37.7686Z" fill="white"/>
</svg>
