<svg width="691" height="800" viewBox="0 0 691 800" fill="none" xmlns="http://www.w3.org/2000/svg">
<path d="M293.788 716.45C296.791 732.287 302.252 743.481 308.532 751.945C309.078 752.764 309.624 753.311 310.17 754.13C311.535 755.768 312.901 757.133 314.266 758.498C315.085 759.317 315.631 759.863 316.45 760.41C323.822 766.962 331.74 770.785 338.566 773.788C355.768 781.16 356.587 800 356.587 800L221.706 799.181C223.344 776.792 223.344 734.471 223.344 734.471C251.467 726.007 264.846 721.092 293.788 716.45Z" fill="#212429"/>
<path d="M308.535 751.945C309.081 752.764 309.627 753.31 310.174 754.13C304.713 756.587 299.252 759.317 293.791 761.775C292.153 762.594 290.788 760.136 292.426 759.59C297.887 756.86 303.348 754.403 308.535 751.945Z" fill="white"/>
<path d="M314.542 758.225C315.361 759.044 315.907 759.59 316.726 760.137C310.72 763.14 304.44 765.87 298.433 768.874C296.795 769.693 295.429 767.235 297.068 766.689C302.801 763.959 308.535 761.229 314.542 758.225Z" fill="white"/>
<path d="M307.165 423.754C323.82 567.645 310.441 744.573 310.441 744.573L212.694 750.853C212.694 750.853 222.523 476.45 213.24 428.123C203.957 380.068 307.165 423.754 307.165 423.754Z" fill="#3A4149"/>
<path d="M106.485 703.891C93.925 713.994 86.553 724.096 82.1843 733.652C81.9113 734.472 81.3653 735.291 81.0922 736.11C80.2731 738.021 79.727 739.932 79.1809 741.844C78.9079 742.663 78.6349 743.755 78.3618 744.574C76.1775 754.13 76.4506 763.141 76.9967 770.513C78.3618 789.079 62.2526 798.635 62.2526 798.635L0 679.045C18.8396 665.939 37.4062 654.199 51.8772 639.728C72.355 660.478 89.0103 680.683 106.485 703.891Z" fill="#212429"/>
<path d="M250.102 367.51L163.822 373.244C154.539 426.486 150.717 503.756 111.399 571.742C93.6517 602.595 63.0714 627.169 31.126 654.745C48.8734 679.046 77.2693 710.991 95.2898 735.292C101.024 725.735 200.409 674.131 230.717 534.336C247.372 457.612 250.102 367.51 250.102 367.51Z" fill="#3A4149"/>
<path d="M82.1833 733.652C81.9103 734.471 81.3642 735.291 81.0912 736.11C76.1765 732.56 71.5348 728.738 66.6202 725.188C65.255 724.096 66.6202 721.639 67.9854 722.731C72.9 726.553 77.5417 730.103 82.1833 733.652Z" fill="white"/>
<path d="M79.1803 741.845C78.9073 742.664 78.6343 743.757 78.3612 744.576C72.9005 740.48 67.4397 736.658 62.252 732.562C60.8868 731.47 62.252 729.013 63.6172 730.105C68.8049 734.2 73.9926 738.023 79.1803 741.845Z" fill="white"/>
<path d="M221.71 573.926C221.436 573.926 221.163 573.926 220.89 573.653C219.798 573.38 219.252 572.015 219.798 570.922C239.184 520.41 247.921 456.793 247.921 455.974L248.194 454.335H249.832C250.105 454.335 265.123 453.516 275.225 450.786C276.317 450.513 277.409 451.059 277.682 452.151C277.955 453.243 277.409 454.335 276.317 454.608C267.853 456.793 256.112 457.885 251.744 458.158C250.378 468.533 241.368 526.144 223.621 572.288C223.348 573.38 222.529 573.926 221.71 573.926Z" fill="white"/>
<path d="M690.239 0H373.242V425.666H690.239V0Z" fill="#E4E4EF"/>
<path d="M568.196 46.416H438.776V127.781H568.196V46.416Z" fill="#F2F2F9"/>
<path d="M517.136 319.454L649.286 244.095C649.286 244.095 686.146 310.989 621.982 345.392C566.01 375.426 517.136 319.454 517.136 319.454Z" fill="#F2F2F9"/>
<path d="M588.399 255.29C598.351 255.29 606.419 247.222 606.419 237.269C606.419 227.317 598.351 219.249 588.399 219.249C578.446 219.249 570.378 227.317 570.378 237.269C570.378 247.222 578.446 255.29 588.399 255.29Z" fill="#D735B3"/>
<path d="M578.291 58.7034C577.745 58.7034 577.199 58.4303 576.926 58.1573L556.448 37.6795C555.629 36.8604 555.629 35.4952 556.448 34.676C557.267 33.8569 558.633 33.8569 559.452 34.676L579.929 55.1539C580.749 55.973 580.749 57.3382 579.929 58.1573C579.383 58.7034 578.837 58.7034 578.291 58.7034Z" fill="#D735B3"/>
<path d="M558.087 58.7034C557.541 58.7034 556.995 58.4303 556.722 58.1573C555.903 57.3382 555.903 55.973 556.722 55.1539L577.2 34.676C578.019 33.8569 579.384 33.8569 580.203 34.676C581.022 35.4952 581.022 36.8604 580.203 37.6795L559.725 58.1573C559.179 58.7034 558.633 58.7034 558.087 58.7034Z" fill="#D735B3"/>
<path d="M480.651 279.283L440.898 294.574L456.19 334.327L495.942 319.036L480.651 279.283Z" fill="#D735B3"/>
<path d="M690.514 76.7237H676.043V202.048H690.514V76.7237Z" fill="#F2F2F9"/>
<path d="M523.69 78.9088H462.257C461.164 78.9088 460.072 78.0897 460.072 76.7245C460.072 75.3593 460.891 74.5402 462.257 74.5402H523.69C524.782 74.5402 525.874 75.3593 525.874 76.7245C525.874 78.0897 524.782 78.9088 523.69 78.9088Z" fill="#7331A6"/>
<path d="M463.347 155.357L505.668 101.023L517.135 167.371L463.347 155.357Z" fill="white"/>
<path d="M486.555 179.658C486.282 179.658 486.282 179.658 486.009 179.658C484.916 179.385 484.097 178.293 484.37 177.201L490.923 148.259C491.196 147.166 492.288 146.347 493.381 146.62C494.473 146.893 495.292 147.986 495.019 149.078L488.466 178.02C488.193 179.112 487.374 179.658 486.555 179.658Z" fill="white"/>
<path d="M413.927 182.116C432.22 163.823 443.688 144.71 455.155 151.536C455.155 151.536 469.353 149.352 468.261 156.724C478.091 148.806 481.64 139.249 488.193 142.799C499.115 148.532 466.623 189.761 466.623 189.761H475.906C475.906 189.761 483.278 173.925 490.923 175.017C498.568 176.109 490.377 205.051 470.172 216.246C454.063 225.256 432.766 237.27 432.766 237.27L413.927 182.116Z" fill="#FFCC3E"/>
<path d="M413.924 182.117C398.907 196.588 375.699 223.345 353.583 232.083C326.006 243.004 277.406 183.482 243.003 187.031L251.74 246.827C251.74 246.827 280.682 306.622 334.197 318.363C387.713 330.103 442.32 236.451 442.593 236.178C435.494 220.069 426.484 192.765 413.924 182.117Z" fill="#7331A6"/>
<path d="M466.08 156.451C462.257 160 459.254 163.823 456.523 168.464C455.704 170.103 457.889 171.468 458.981 169.83C461.438 165.461 464.442 161.638 467.991 158.362C469.356 157.27 467.172 155.359 466.08 156.451Z" fill="#212429"/>
<path d="M450.238 152.082C447.508 155.086 444.777 158.089 442.047 161.093C440.955 162.458 442.866 164.369 443.958 163.004C446.688 160 449.419 156.997 452.149 153.994C453.514 152.901 451.603 150.99 450.238 152.082Z" fill="#212429"/>
<path d="M218.971 181.297L214.603 193.038L265.934 198.771L268.391 175.017L218.971 181.297Z" fill="#7331A6"/>
<path d="M259.656 194.404C230.714 172.015 171.192 210.786 161.635 243.823C152.079 276.861 140.611 437.134 140.611 437.134L316.175 434.677C316.175 434.677 301.977 261.571 281.499 232.356C261.021 203.141 269.212 202.049 259.656 194.404Z" fill="#7331A6"/>
<path d="M297.883 287.781C297.064 287.781 295.972 287.235 295.972 286.143C295.972 285.87 292.422 269.761 285.05 244.641C284.777 243.549 285.323 242.457 286.415 242.184C287.507 241.911 288.6 242.457 288.873 243.549C296.518 268.941 299.794 285.051 299.794 285.324C300.067 286.416 299.248 287.508 298.156 287.781C298.156 287.781 298.156 287.781 297.883 287.781Z" fill="white"/>
<path d="M418.291 392.083H194.4V481.639H418.291V392.083Z" fill="#4490E5"/>
<path d="M350.852 417.201H261.568V437.133H350.852V417.201Z" fill="#F2F2F9"/>
<path d="M383.35 417.201H363.418V437.133H383.35V417.201Z" fill="#F2F2F9"/>
<path d="M408.194 417.201H388.262V437.133H408.194V417.201Z" fill="#F2F2F9"/>
<path d="M383.35 444.233H363.418V464.165H383.35V444.233Z" fill="#F2F2F9"/>
<path d="M243.825 444.233H223.894V464.165H243.825V444.233Z" fill="#F2F2F9"/>
<path d="M271.676 444.233H251.744V464.165H271.676V444.233Z" fill="#F2F2F9"/>
<path d="M236.717 173.923C231.529 187.848 217.331 189.759 207.775 185.664C199.038 181.841 197.4 170.647 206.137 163.002C209.14 160.544 213.236 158.36 218.97 156.995C218.97 156.995 223.338 157.541 227.707 159.452C233.714 161.636 239.72 166.278 236.717 173.923Z" fill="#FFCC3E"/>
<path d="M275.767 130.51C284.777 150.442 285.869 172.012 259.658 181.295C241.91 187.575 220.067 179.93 211.057 159.998C202.047 140.067 209.146 117.405 227.166 109.213C244.913 101.022 266.757 110.579 275.767 130.51Z" fill="#FFCC3E"/>
<path d="M250.235 144.995C251.742 144.951 252.928 143.692 252.883 142.185C252.838 140.678 251.58 139.492 250.073 139.537C248.566 139.581 247.38 140.839 247.425 142.347C247.469 143.854 248.727 145.04 250.235 144.995Z" fill="#7331A6"/>
<path d="M273.035 144.436C269.758 139.248 265.936 134.606 261.294 130.511C259.929 129.419 258.018 131.33 259.383 132.422C263.751 136.245 267.574 140.886 270.85 145.801C271.669 147.439 273.854 146.074 273.035 144.436Z" fill="#7331A6"/>
<path d="M249.555 114.402C243.548 120.954 213.787 135.699 224.981 150.443C227.712 154.265 230.988 155.63 227.985 159.453C224.435 162.729 219.248 156.995 219.248 156.995C213.787 158.361 209.418 160.545 206.415 163.002C191.944 150.443 192.217 136.245 198.77 131.057C198.77 131.057 236.995 76.1763 254.743 90.6473C270.306 103.48 249.555 114.402 249.555 114.402Z" fill="#22B6C6"/>
<path d="M225.25 168.736C219.516 166.006 212.417 167.644 208.321 172.559C207.229 173.924 209.14 175.835 210.232 174.47C213.509 170.375 218.97 168.736 223.884 171.194C225.523 171.74 226.888 169.283 225.25 168.736Z" fill="#7331A6"/>
<path d="M286.963 370.785C284.506 362.32 248.465 337.474 246.554 329.01C234.813 335.563 223.346 339.658 212.97 336.109C184.301 326.279 173.653 273.856 206.69 247.918C239.728 221.979 242.731 186.757 242.731 186.757C190.581 188.941 140.342 220.341 117.134 283.685C90.9224 355.767 125.052 392.354 152.083 405.187C178.841 417.747 254.199 413.105 254.199 413.105C255.018 414.471 261.571 403.003 262.936 401.911C270.308 392.355 290.513 382.798 286.963 370.785Z" fill="#7331A6"/>
<path d="M286.958 358.499C286.685 358.499 286.139 358.499 285.866 358.226C285.593 357.953 258.835 341.844 199.586 333.379C191.395 332.287 185.388 327.919 181.839 321.093C175.013 307.441 178.562 284.779 191.395 260.205C191.941 259.113 193.033 258.84 194.125 259.386C195.217 259.932 195.491 261.024 194.944 262.117C182.658 285.052 179.108 307.168 185.388 319.454C188.392 325.188 193.306 328.738 200.132 329.557C260.474 338.294 286.958 354.13 288.05 354.949C289.143 355.495 289.415 356.861 288.596 357.68C288.323 358.226 287.777 358.499 286.958 358.499Z" fill="white"/>
<path d="M190.578 414.198C190.305 414.198 190.305 414.198 190.578 414.198C176.107 413.106 162.728 410.922 151.807 407.372C150.715 407.099 150.169 405.734 150.442 404.915C150.715 403.823 152.08 403.277 152.899 403.55C163.547 407.099 176.653 409.283 190.578 410.375C191.67 410.375 192.489 411.468 192.489 412.56C192.489 413.379 191.67 414.198 190.578 414.198Z" fill="white"/>
<path d="M289.966 362.595C275.495 373.244 267.85 393.722 258.021 409.831C260.205 415.019 261.57 415.292 273.311 416.93C294.607 419.66 294.061 434.404 304.71 434.404C315.358 434.131 315.631 428.397 315.631 428.397C328.464 428.397 332.287 419.114 332.287 419.114C362.321 407.92 308.805 363.414 289.966 362.595Z" fill="#FFCC3E"/>
<path d="M315.353 423.755C311.258 416.109 306.07 409.01 299.79 403.004C298.425 401.912 296.514 403.823 297.879 404.915C304.159 410.649 309.073 417.475 313.169 425.12C313.988 426.758 316.172 425.393 315.353 423.755Z" fill="#212429"/>
<path d="M332.01 415.563C329.006 404.642 322.454 397.27 313.989 390.171C312.624 389.079 310.713 390.99 312.078 392.082C319.996 398.908 326.276 406.007 329.279 416.382C330.098 418.021 332.556 417.201 332.01 415.563Z" fill="#212429"/>
</svg>
