<svg width="754" height="800" viewBox="0 0 754 800" fill="none" xmlns="http://www.w3.org/2000/svg">
<path d="M501.705 34.5343C501.434 53.2971 486.478 68.5248 467.715 68.5248C448.952 68.5248 433.725 53.2971 433.725 34.5343C433.725 15.7716 448.952 0.543823 467.715 0.543823C486.478 0.543823 501.977 9.51731 501.705 34.5343Z" fill="#D735B3"/>
<path d="M532.156 273.283L472.877 312.168L538.41 343.439L532.156 273.283Z" fill="#D735B3"/>
<path d="M576.923 258.995L553.828 267.879L562.712 290.973L585.806 282.09L576.923 258.995Z" fill="#D735B3"/>
<path d="M292.594 716.791C295.586 732.563 301.024 743.712 307.278 752.141C307.822 752.957 308.366 753.501 308.91 754.317C310.269 755.948 311.629 757.308 312.989 758.668C313.804 759.483 314.348 760.027 315.164 760.571C322.506 767.097 330.392 770.904 337.19 773.895C354.321 781.237 355.137 800 355.137 800L220.807 799.184C222.438 776.886 222.438 734.738 222.438 734.738C250.446 726.58 263.771 721.414 292.594 716.791Z" fill="#212429"/>
<path d="M307.274 752.14C307.818 752.956 308.362 753.5 308.906 754.315C303.467 756.763 298.029 759.482 292.59 761.929C290.959 762.745 289.599 760.298 291.231 759.754C296.669 757.035 302.108 754.587 307.274 752.14Z" fill="white"/>
<path d="M313.257 758.667C314.073 759.483 314.616 760.026 315.432 760.57C309.45 763.561 303.196 766.281 297.213 769.272C295.582 770.088 294.222 767.64 295.854 767.096C301.564 764.105 307.274 761.386 313.257 758.667Z" fill="white"/>
<path d="M306.18 425.288C322.767 568.592 309.443 744.799 309.443 744.799L212.095 751.053C212.095 751.053 221.884 477.77 212.638 429.639C203.121 381.781 306.18 425.288 306.18 425.288Z" fill="#3A4149"/>
<path d="M106.322 704.555C93.8135 714.616 86.4716 724.677 82.1208 734.194C81.8489 735.01 81.3051 735.826 81.0332 736.642C80.2174 738.545 79.6735 740.449 79.1297 742.352C78.8577 743.168 78.5858 744.256 78.3139 745.071C76.1385 754.589 76.4105 763.562 76.9543 770.904C78.3139 789.395 62.2704 798.912 62.2704 798.912L0 679.538C18.7627 666.485 36.7097 654.249 51.1216 639.837C71.5158 660.775 88.647 681.169 106.322 704.555Z" fill="#212429"/>
<path d="M249.084 369.272L163.157 374.983C153.911 428.008 150.104 504.962 110.947 572.671C93.2724 603.399 62.817 627.872 31.002 655.336C48.677 679.537 76.957 711.352 94.9039 735.554C100.614 726.036 199.594 674.643 229.778 535.418C246.365 459.279 249.084 369.272 249.084 369.272Z" fill="#3A4149"/>
<path d="M81.844 733.922C81.5721 734.738 81.0283 735.554 80.7564 736.369C75.8617 732.834 71.239 729.028 66.3444 725.492C64.9848 724.405 66.3444 721.958 67.704 723.045C72.5987 726.852 77.2213 730.387 81.844 733.922Z" fill="white"/>
<path d="M78.854 742.08C78.5821 742.895 78.3102 743.983 78.0383 744.799C72.5998 740.72 67.1614 736.913 61.9948 732.834C60.6352 731.747 61.9948 729.299 63.3544 730.387C68.521 734.466 73.6875 738.273 78.854 742.08Z" fill="white"/>
<path d="M220.802 574.847C220.53 574.847 220.259 574.847 219.987 574.575C218.899 574.303 218.355 572.944 218.899 571.856C238.205 521.55 246.907 458.192 246.907 457.376L247.179 455.744H248.81C249.082 455.744 264.038 454.929 274.099 452.209C275.187 451.938 276.275 452.481 276.547 453.569C276.819 454.657 276.275 455.744 275.187 456.016C266.757 458.192 255.065 459.279 250.714 459.551C249.354 469.885 240.381 527.26 222.706 573.216C222.434 574.303 221.618 574.847 220.802 574.847Z" fill="white"/>
<path d="M670.288 293.678C669.744 292.591 668.656 292.319 667.568 292.862C645.814 304.555 621.069 310.538 596.053 310.538C512.572 310.538 444.591 243.372 442.96 160.436C441.872 160.708 441.056 160.979 439.969 161.251C439.697 161.251 439.153 161.523 438.881 161.523C441.056 246.364 510.669 314.888 596.053 314.888C621.613 314.888 647.174 308.634 669.472 296.669C670.56 295.854 670.831 294.494 670.288 293.678Z" fill="#22B6C6"/>
<path d="M622.969 146.839H569.129C568.041 146.839 566.953 146.024 566.953 144.664C566.953 143.304 567.769 142.489 569.129 142.489H622.969C624.057 142.489 625.145 143.304 625.145 144.664C625.145 146.024 624.057 146.839 622.969 146.839Z" fill="#22B6C6"/>
<path d="M622.969 172.128H569.129C568.041 172.128 566.953 171.313 566.953 169.953C566.953 168.593 567.769 167.777 569.129 167.777H622.969C624.057 167.777 625.145 168.593 625.145 169.953C625.145 171.313 624.057 172.128 622.969 172.128Z" fill="#22B6C6"/>
<path d="M608.558 255.336C607.47 255.336 606.654 254.52 606.654 253.433C606.382 252.345 607.198 251.257 608.286 251.257C613.996 250.441 619.707 249.354 625.145 247.45C626.233 247.178 627.32 247.722 627.592 248.81C627.864 249.898 627.32 250.985 626.233 251.257C620.794 253.161 614.812 254.52 608.558 255.336C608.558 255.336 608.83 255.336 608.558 255.336Z" fill="#22B6C6"/>
<path d="M652.067 238.478C651.523 238.478 650.707 238.206 650.435 237.662C649.891 236.846 649.892 235.486 650.979 234.943C658.593 229.504 665.663 222.978 671.373 215.364C672.189 214.548 673.277 214.276 674.365 215.092C675.18 215.908 675.452 216.996 674.637 218.083C668.654 225.969 661.312 232.767 653.427 238.478C652.883 238.206 652.339 238.478 652.067 238.478Z" fill="#22B6C6"/>
<path d="M681.977 203.943C681.705 203.943 681.433 203.943 681.161 203.671C680.074 203.128 679.802 202.04 680.346 200.952C687.416 187.628 690.951 172.4 690.951 157.172C690.951 123.726 673.819 93.5422 645.267 76.1391C644.18 75.5952 643.908 74.2356 644.452 73.4199C644.995 72.3322 646.355 72.0602 647.171 72.6041C677.082 90.823 694.757 122.366 694.757 157.172C694.757 172.944 690.951 188.716 683.609 202.856C683.337 203.671 682.793 203.943 681.977 203.943Z" fill="#22B6C6"/>
<path d="M532.151 86.4724C531.608 86.4724 531.064 86.2005 530.52 85.6566C529.704 84.8409 529.976 83.4812 530.792 82.6655C548.739 66.8939 571.852 58.1923 596.053 58.1923C602.852 58.1923 609.378 58.7362 615.904 60.0958C616.991 60.3677 617.807 61.4554 617.535 62.5431C617.263 63.6308 616.176 64.4466 615.088 64.1746C608.834 62.815 602.308 62.2712 596.053 62.2712C572.94 62.2712 550.914 70.7008 533.511 85.6566C533.239 86.2005 532.695 86.4724 532.151 86.4724Z" fill="#22B6C6"/>
<path d="M720.596 159.348C719.508 159.348 718.42 158.532 718.42 157.172C718.42 153.094 718.148 148.743 717.876 144.664C711.622 81.8495 659.141 34.5347 595.783 34.5347C594.695 34.5347 593.607 33.7189 593.607 32.3593C593.607 30.9997 594.423 30.1839 595.783 30.1839C661.044 30.1839 715.157 79.1302 721.683 143.848C722.227 148.199 722.227 152.55 722.227 156.9C722.771 158.26 721.683 159.348 720.596 159.348Z" fill="#22B6C6"/>
<path d="M538.673 48.6741C537.857 48.6741 537.314 48.4022 536.77 47.5864C536.226 46.4987 536.77 45.411 537.585 44.8672C548.734 39.1568 560.699 35.0779 573.207 32.6306C574.295 32.3587 575.383 33.1744 575.655 34.2621C575.927 35.3498 575.111 36.4375 574.023 36.7095C562.059 38.8849 550.366 42.9637 539.489 48.4022C539.489 48.4022 538.945 48.6741 538.673 48.6741Z" fill="#22B6C6"/>
<path d="M565.32 280.082C565.048 280.082 565.048 280.082 564.776 280.082C532.689 271.924 504.409 250.986 487.278 222.434C486.734 221.347 487.006 220.259 488.094 219.715C489.181 219.171 490.269 219.443 490.813 220.531C507.4 248.267 534.864 268.389 565.864 276.275C566.951 276.547 567.495 277.635 567.223 278.723C567.223 279.538 566.408 280.082 565.32 280.082Z" fill="#22B6C6"/>
<path d="M596.056 283.889C594.969 283.889 593.881 283.073 593.881 281.713C593.881 280.354 594.697 279.538 596.056 279.538C624.064 279.538 651.529 269.748 673.282 252.345C674.098 251.53 675.458 251.802 676.274 252.617C677.089 253.433 676.817 254.793 676.002 255.608C653.16 273.827 624.88 283.889 596.056 283.889Z" fill="#22B6C6"/>
<path d="M740.715 215.364C740.443 215.364 740.172 215.364 739.9 215.092C738.812 214.82 738.268 213.461 738.812 212.373C745.61 194.698 749.145 176.207 749.145 157.172C749.145 115.84 732.83 76.9548 703.19 47.8589C702.374 47.0432 702.374 45.6836 703.19 44.8678C704.006 44.052 705.365 44.052 706.181 44.8678C736.637 74.7794 753.224 114.48 753.224 157.172C753.224 176.751 749.689 195.786 742.619 214.004C742.347 214.82 741.531 215.364 740.715 215.364Z" fill="#22B6C6"/>
<path d="M678.716 28.0089C678.444 28.0089 677.9 28.0089 677.628 27.737C670.014 23.1143 662.129 19.0354 653.971 15.5004C652.883 14.9565 652.339 13.8689 652.883 12.7812C653.427 11.6935 654.515 11.1496 655.603 11.6935C664.032 15.2285 672.19 19.3073 679.804 24.2019C680.891 24.7458 681.163 26.1054 680.348 26.9212C680.076 27.465 679.532 28.0089 678.716 28.0089Z" fill="#22B6C6"/>
<path d="M459.546 85.3841C459.275 85.3841 459.003 85.3841 458.459 85.1121C457.371 84.5683 457.099 83.2087 457.643 82.3929C476.678 47.5867 507.677 21.2101 545.202 8.42963C561.518 2.99116 578.649 0 596.052 0C597.14 0 598.227 0.81578 598.227 2.1754C598.227 3.53502 597.412 4.35078 596.052 4.35078C579.193 4.35078 562.333 7.07002 546.562 12.5085C510.124 25.017 479.941 50.5778 461.45 84.5683C460.906 84.8402 460.362 85.3841 459.546 85.3841Z" fill="#22B6C6"/>
<path d="M499.518 167.777C498.43 167.777 497.614 166.961 497.614 165.873C497.342 162.882 497.07 159.619 497.07 156.628C497.07 140.584 500.877 124.813 508.219 110.673C508.763 109.585 509.851 109.313 510.938 109.857C512.026 110.401 512.298 111.489 511.754 112.576C504.684 126.172 501.149 141.4 501.149 156.628C501.149 159.619 501.421 162.61 501.693 165.601C501.693 166.689 500.877 167.777 499.518 167.777C499.79 167.777 499.79 167.777 499.518 167.777Z" fill="#22B6C6"/>
<path d="M486.737 178.654C492.176 172.128 485.377 165.874 485.377 165.874L487.281 163.698C489.184 161.523 488.097 159.348 485.921 157.444C475.044 146.295 464.167 146.023 448.124 157.444L446.764 158.804C446.764 158.804 436.159 220.259 443.501 219.443C451.115 218.627 466.343 199.592 466.343 199.592C468.79 202.04 472.869 200.408 481.842 193.066C490.816 185.724 486.737 178.654 486.737 178.654Z" fill="#FFCC3E"/>
<path d="M499.518 167.777H415.222C414.135 167.777 413.047 166.962 413.047 165.602C413.047 164.242 413.863 163.427 415.222 163.427H499.518C500.606 163.427 501.694 164.242 501.694 165.602C501.694 166.962 500.606 167.777 499.518 167.777Z" fill="#22B6C6"/>
<path d="M461.722 150.102C455.74 140.313 434.802 159.619 422.022 174.575C418.215 179.198 412.504 184.636 406.25 190.347C412.504 205.846 417.671 221.89 423.653 237.389C424.469 239.837 425.557 242.284 426.644 244.46C430.995 238.205 435.618 232.495 440.512 227.6C469.336 198.232 449.486 169.952 449.486 169.952C449.486 169.952 465.801 156.628 461.722 150.102Z" fill="#FFCC3E"/>
<path d="M412.23 184.636C397.274 199.048 374.161 225.696 352.135 234.398C324.671 245.275 276.268 185.995 242.006 189.53L250.707 249.082C250.707 249.082 279.531 308.633 332.828 320.326C386.125 332.019 440.51 238.749 440.782 238.477C433.712 222.705 424.738 195.513 412.23 184.636Z" fill="#7331A6"/>
<path d="M460.084 153.637C457.637 160.163 453.83 165.33 448.391 169.953C447.848 170.496 447.848 171.312 448.391 171.856C454.374 178.382 453.83 187.356 447.304 193.338C445.944 194.426 447.848 196.329 449.207 195.241C454.918 190.075 457.365 182.189 454.102 174.847C453.83 174.575 451.654 171.312 451.926 171.312C452.198 169.681 455.461 167.233 456.549 165.874C459.268 162.339 461.444 158.532 462.803 154.181C463.347 152.549 460.628 152.006 460.084 153.637Z" fill="#212429"/>
<path d="M466.071 170.497C459.273 173.216 458.186 181.646 464.168 185.996C465.528 187.084 466.887 184.637 465.528 183.549C461.449 180.83 462.265 174.848 466.887 173.216C468.519 172.4 467.975 169.953 466.071 170.497Z" fill="#212429"/>
<path d="M479.123 176.479C473.956 179.47 460.36 187.899 465.526 195.513C466.614 196.873 468.789 195.513 467.974 194.154C464.439 188.715 476.947 181.101 480.754 178.926C481.842 177.838 480.482 175.663 479.123 176.479Z" fill="#212429"/>
<path d="M218.089 183.82L213.738 195.513L264.86 201.495L267.307 177.566L218.089 183.82Z" fill="#7331A6"/>
<path d="M258.6 197.144C229.776 174.847 170.496 213.46 160.979 246.362C151.462 279.265 140.041 438.885 140.041 438.885L314.888 436.437C314.888 436.437 300.748 264.038 280.353 234.942C259.959 205.846 268.117 204.486 258.6 197.144Z" fill="#7331A6"/>
<path d="M296.666 289.87C295.85 289.87 294.763 289.326 294.763 288.239C294.763 287.967 291.228 271.923 283.886 246.906C283.614 245.819 284.158 244.731 285.245 244.459C286.333 244.187 287.421 244.731 287.693 245.819C295.307 271.107 298.57 287.151 298.57 287.423C298.842 288.511 298.026 289.598 296.938 289.87C296.938 289.87 296.938 289.87 296.666 289.87Z" fill="white"/>
<path d="M324.679 339.361H310.539C301.838 339.361 294.768 332.291 294.768 323.59V306.458C294.768 297.757 301.838 290.687 310.539 290.687H324.679C325.767 290.687 326.855 291.503 326.855 292.862C326.855 294.222 326.039 295.038 324.679 295.038H310.539C304.013 295.038 298.846 300.476 298.846 306.73V323.862C298.846 330.388 304.285 335.554 310.539 335.554H324.679C325.767 335.554 326.855 336.37 326.855 337.73C326.855 339.089 325.767 339.361 324.679 339.361Z" fill="#212429"/>
<path d="M338.276 345.072C326.04 345.072 315.979 335.01 315.979 322.774V287.968H360.574V322.774C360.574 335.01 350.513 345.072 338.276 345.072Z" fill="#212429"/>
<path d="M342.08 275.187C340.992 275.187 340.176 274.371 340.176 273.555L336.369 246.635C336.097 245.547 336.913 244.459 338.001 244.187C339.088 243.915 340.176 244.731 340.448 245.819L344.255 272.739C344.527 273.827 343.711 274.915 342.623 275.187C342.351 275.187 342.351 275.187 342.08 275.187Z" fill="#E4E4EF"/>
<path d="M328.758 277.09C327.942 277.09 327.398 276.818 326.854 276.002L320.6 264.309C320.056 263.222 320.328 262.134 321.416 261.59C322.503 261.046 323.591 261.318 324.135 262.406L330.389 274.099C330.933 275.186 330.661 276.274 329.573 276.818C329.302 276.818 329.03 277.09 328.758 277.09Z" fill="#E4E4EF"/>
<path d="M235.77 176.478C230.603 190.347 216.463 192.25 206.946 188.171C198.244 184.364 196.613 173.215 205.314 165.601C208.305 163.154 212.384 160.979 218.095 159.619C218.095 159.619 222.445 160.163 226.796 162.066C232.779 164.514 238.761 168.865 235.77 176.478Z" fill="#FFCC3E"/>
<path d="M274.648 133.243C283.621 153.094 284.709 174.576 258.604 183.821C240.929 190.075 219.176 182.461 210.202 162.611C201.229 142.761 208.299 120.191 226.246 112.033C244.193 103.875 265.674 113.393 274.648 133.243Z" fill="#FFCC3E"/>
<path d="M249.197 147.679C250.699 147.635 251.88 146.382 251.835 144.881C251.791 143.379 250.538 142.199 249.037 142.243C247.535 142.287 246.354 143.54 246.399 145.042C246.443 146.543 247.696 147.724 249.197 147.679Z" fill="#7331A6"/>
<path d="M271.931 147.382C268.668 142.216 264.861 137.593 260.238 133.514C258.879 132.427 256.975 134.33 258.335 135.418C262.686 139.225 266.493 143.847 269.756 148.742C270.571 150.102 272.747 148.742 271.931 147.382Z" fill="#7331A6"/>
<path d="M248.544 117.199C242.561 123.725 212.922 138.409 224.071 153.093C226.79 156.9 230.053 158.26 227.062 162.067C223.527 165.33 218.36 159.619 218.36 159.619C212.922 160.979 208.571 163.154 205.58 165.602C191.168 153.093 191.44 138.953 197.966 133.786C197.966 133.786 236.035 79.1298 253.71 93.5418C269.21 106.594 248.544 117.199 248.544 117.199Z" fill="#22B6C6"/>
<path d="M224.348 171.312C218.638 168.593 211.568 170.224 207.489 175.119C206.401 176.478 208.305 178.382 209.392 177.022C212.655 172.943 218.094 171.312 222.988 173.759C224.62 174.575 225.98 172.128 224.348 171.312Z" fill="#7331A6"/>
<path d="M311.345 319.508C311.345 319.508 318.143 303.465 309.985 302.377C286.6 299.658 260.495 325.219 236.838 335.28C236.838 349.148 237.926 363.016 238.469 376.884C238.741 385.314 239.013 393.472 239.013 401.901C258.864 395.919 275.179 385.586 280.89 376.341C285.784 367.911 294.758 367.367 298.836 362.472C306.994 366.007 318.415 344.797 309.441 337.184C309.713 337.184 320.046 329.026 311.345 319.508Z" fill="#FFCC3E"/>
<path d="M251.8 356.492C249.353 348.062 247.449 339.632 245.546 331.203C233.853 337.729 222.432 341.808 212.099 338.273C183.547 328.483 172.942 276.274 205.845 250.441C238.748 224.609 241.739 189.53 241.739 189.53C189.802 191.706 139.768 222.977 116.654 286.063C90.5496 357.851 124.54 394.289 151.46 407.069C182.46 421.481 239.292 405.166 262.949 391.57C259.142 380.149 255.063 368.456 251.8 356.492Z" fill="#7331A6"/>
<path d="M309.993 317.062C299.932 311.623 290.143 317.605 281.985 323.588C280.625 324.675 281.985 326.851 283.345 326.035C290.687 320.597 299.66 314.614 308.633 319.509C310.265 320.053 311.625 317.877 309.993 317.062Z" fill="#212429"/>
<path d="M307.268 334.193C299.382 332.018 291.769 334.465 286.602 340.991C285.514 342.351 287.418 344.254 288.506 342.894C292.856 337.184 299.383 335.009 306.453 336.912C308.084 337.184 308.9 334.737 307.268 334.193Z" fill="#212429"/>
<path d="M300.465 353.771C299.378 355.403 298.29 357.034 297.202 358.394C296.114 359.753 298.562 361.113 299.649 359.753C300.737 358.122 301.825 356.49 302.913 355.131C303.728 353.499 301.281 352.14 300.465 353.771Z" fill="#212429"/>
<path d="M220.795 340.719C214.541 340.719 206.655 339.36 198.226 335.281C189.252 330.93 182.998 324.132 180.279 315.431C175.928 301.834 179.463 283.887 190.884 262.405C191.428 261.318 192.515 261.046 193.603 261.59C194.691 262.133 194.963 263.221 194.419 264.309C183.814 284.431 180.279 301.834 184.086 314.071C186.533 321.685 191.972 327.667 199.857 331.474C220.252 341.263 235.751 333.377 236.023 333.377C237.111 332.834 238.199 333.106 238.742 334.193C239.286 335.281 239.014 336.369 237.927 336.913C237.655 337.456 231.128 340.719 220.795 340.719Z" fill="white"/>
<path d="M190.612 413.866C175.928 413.866 162.06 412.507 151.183 408.972C150.095 408.7 149.551 407.34 149.823 406.524C150.095 405.708 151.455 404.893 152.271 405.165C183.814 415.498 245.812 406.252 262.399 399.998C263.487 399.726 264.575 399.998 265.119 401.086C265.391 402.173 265.119 403.261 264.031 403.805C252.338 408.428 220.251 413.866 190.612 413.866Z" fill="white"/>
<path d="M411.153 85.6558C410.609 85.6558 410.065 85.3839 409.793 85.112C408.978 84.2962 408.978 82.9366 409.793 82.1208L427.74 64.1738C428.556 63.3581 429.916 63.3581 430.732 64.1738C431.547 64.9896 431.547 66.3492 430.732 67.165L412.785 85.112C412.241 85.3839 411.697 85.6558 411.153 85.6558Z" fill="#22B6C6"/>
<path d="M429.1 85.6558C428.556 85.6558 428.012 85.3839 427.74 85.112L409.793 67.165C408.978 66.3492 408.978 64.9896 409.793 64.1738C410.609 63.3581 411.969 63.3581 412.785 64.1738L430.732 82.1208C431.547 82.9366 431.547 84.2962 430.732 85.112C430.188 85.3839 429.644 85.6558 429.1 85.6558Z" fill="#22B6C6"/>
</svg>
