<svg width="855" height="800" viewBox="0 0 855 800" fill="none" xmlns="http://www.w3.org/2000/svg">
<path d="M301.301 714.315C304.381 730.556 309.981 742.037 316.422 750.717C316.982 751.557 317.542 752.117 318.102 752.958C319.502 754.638 320.902 756.038 322.302 757.438C323.142 758.278 323.702 758.838 324.542 759.398C332.103 766.118 340.223 770.038 347.223 773.119C364.864 780.679 365.704 800 365.704 800L227.377 799.16C229.057 776.199 229.057 732.796 229.057 732.796C257.899 724.116 271.619 719.076 301.301 714.315Z" fill="#212429"/>
<path d="M316.415 750.72C316.975 751.56 317.535 752.121 318.095 752.961C312.494 755.481 306.893 758.282 301.293 760.802C299.612 761.642 298.212 759.122 299.892 758.562C305.493 755.761 310.814 753.241 316.415 750.72Z" fill="white"/>
<path d="M322.302 757.159C323.142 757.999 323.702 758.559 324.542 759.119C318.381 762.2 311.94 765 305.779 768.081C304.099 768.921 302.698 766.4 304.379 765.84C310.26 763.04 316.421 760.239 322.302 757.159Z" fill="white"/>
<path d="M315.024 414.141C332.105 561.709 318.384 743.159 318.384 743.159L218.139 749.599C218.139 749.599 228.219 468.184 218.699 418.621C209.178 369.339 315.024 414.141 315.024 414.141Z" fill="#3A4149"/>
<path d="M109.206 701.436C96.3251 711.796 88.7647 722.157 84.2844 731.957C84.0044 732.798 83.4443 733.638 83.1643 734.478C82.3242 736.438 81.7644 738.398 81.2043 740.358C80.9243 741.198 80.6442 742.318 80.3641 743.158C78.124 752.959 78.404 762.199 78.9641 769.76C80.3641 788.801 63.8434 798.601 63.8434 798.601L0 675.955C19.321 662.514 38.362 650.473 53.2028 635.352C73.9239 656.914 91.2849 677.635 109.206 701.436Z" fill="#212429"/>
<path d="M256.5 356.457L168.015 362.337C158.495 416.94 154.574 496.185 114.252 565.908C96.0512 597.55 64.6895 622.751 31.9277 651.033C50.1287 675.954 79.2503 708.716 97.7312 733.637C103.612 723.837 205.537 670.914 236.619 527.546C253.7 448.862 256.5 356.457 256.5 356.457Z" fill="#3A4149"/>
<path d="M84.2907 731.959C84.0106 732.8 83.4505 733.64 83.1704 734.48C78.1296 730.839 73.3689 726.919 68.328 723.278C66.9278 722.158 68.328 719.637 69.7283 720.758C74.489 724.678 79.5299 728.319 84.2907 731.959Z" fill="white"/>
<path d="M81.2046 740.36C80.9245 741.2 80.6443 742.321 80.3643 743.161C74.7634 738.96 69.1626 735.039 63.8417 730.839C62.4415 729.719 63.8417 727.198 65.2419 728.318C70.5628 732.519 75.8837 736.44 81.2046 740.36Z" fill="white"/>
<path d="M227.375 568.149C227.095 568.149 226.815 568.149 226.535 567.869C225.415 567.589 224.855 566.189 225.415 565.068C245.296 513.266 254.257 448.022 254.257 447.182L254.536 445.502H256.217C256.497 445.502 271.897 444.662 282.258 441.862C283.378 441.582 284.498 442.142 284.778 443.262C285.058 444.382 284.498 445.502 283.378 445.782C274.698 448.022 262.657 449.142 258.177 449.422C256.777 460.063 247.536 519.146 229.335 566.469C229.055 567.589 228.215 568.149 227.375 568.149Z" fill="white"/>
<path d="M424.495 166.334C409.095 181.175 385.293 208.616 362.612 217.577C334.331 228.777 284.488 167.734 249.206 171.374L258.166 232.697C258.166 232.697 287.848 294.021 342.731 306.061C397.614 318.102 453.617 222.057 453.897 221.777C446.617 205.256 437.376 177.254 424.495 166.334Z" fill="#7331A6"/>
<path d="M224.572 165.494L220.092 177.536L272.74 183.416L275.261 159.053L224.572 165.494Z" fill="#7331A6"/>
<path d="M266.293 178.936C236.612 155.975 186.489 185.376 171.648 229.618C160.448 263.22 144.207 427.869 144.207 427.869L324.257 425.349C324.257 425.349 309.696 247.819 288.695 217.858C267.694 187.896 276.094 186.776 266.293 178.936Z" fill="#7331A6"/>
<path d="M305.494 274.703C304.654 274.703 303.534 274.143 303.534 273.023C303.534 272.743 299.893 256.22 292.332 230.456C292.052 229.336 292.612 228.216 293.732 227.936C294.853 227.656 295.973 228.216 296.253 229.336C304.094 255.38 307.455 271.903 307.455 272.183C307.735 273.303 306.894 274.423 305.774 274.703C305.774 274.703 305.774 274.703 305.494 274.703Z" fill="white"/>
<path d="M242.773 157.935C237.453 172.217 222.89 174.178 213.089 169.977C204.127 166.056 202.447 154.574 211.408 146.733C214.489 144.213 218.69 141.972 224.57 140.572C224.57 140.572 229.051 141.132 233.532 143.093C239.693 145.333 245.854 150.094 242.773 157.935Z" fill="#FFCC3E"/>
<path d="M282.533 113.41C291.773 133.851 292.894 155.972 266.012 165.492C247.811 171.933 225.41 164.092 216.169 143.651C206.929 123.21 214.209 99.969 232.69 91.5685C251.171 83.1681 273.292 92.9686 282.533 113.41Z" fill="#FFCC3E"/>
<path d="M256.656 128.269C258.202 128.223 259.419 126.933 259.373 125.387C259.327 123.841 258.037 122.624 256.491 122.67C254.945 122.716 253.728 124.006 253.774 125.552C253.82 127.098 255.11 128.315 256.656 128.269Z" fill="#7331A6"/>
<path d="M279.731 127.692C276.371 122.371 272.45 117.61 267.689 113.409C266.289 112.289 264.329 114.249 265.729 115.37C270.21 119.29 274.13 124.051 277.491 129.092C278.331 130.772 280.851 129.372 279.731 127.692Z" fill="#7331A6"/>
<path d="M255.93 96.888C249.77 103.608 219.248 118.729 230.729 133.85C233.529 137.77 236.889 139.17 233.809 143.091C230.169 146.451 224.849 140.57 224.849 140.57C219.249 141.97 214.768 144.211 211.688 146.731C196.847 133.85 197.127 119.289 203.848 113.969C203.848 113.969 243.05 57.686 261.251 72.5267C277.212 85.6874 255.93 96.888 255.93 96.888Z" fill="#22B6C6"/>
<path d="M231.012 152.61C225.131 149.809 217.85 151.49 213.649 156.53C212.529 157.931 214.489 159.891 215.609 158.491C218.97 154.29 224.571 152.61 229.612 155.13C231.292 155.69 232.692 153.17 231.012 152.61Z" fill="#7331A6"/>
<path d="M389.779 197.976C407.422 164.371 427.585 161.571 438.787 162.131C449.989 162.691 447.189 176.693 447.189 176.693L389.779 197.976Z" fill="#FFCC3E"/>
<path d="M618.548 253.698L440.739 286.74L418.058 165.773L407.417 108.93L469.3 97.4496L585.226 75.8885L593.907 122.371C571.786 126.571 556.665 143.652 561.425 169.693C565.625 191.815 586.906 206.375 608.748 202.175L618.548 253.698Z" fill="#5ED45E"/>
<path d="M607.636 248.382C607.356 248.382 606.795 248.382 606.515 248.102L417.225 118.175C416.385 117.615 416.105 116.215 416.665 115.375C417.225 114.535 418.625 114.255 419.466 114.815L608.756 244.742C609.596 245.302 609.876 246.702 609.316 247.542C609.036 248.102 608.476 248.382 607.636 248.382Z" fill="white"/>
<path d="M448.027 278.339C447.747 278.339 447.187 278.339 446.907 278.059C446.067 277.499 445.787 276.099 446.347 275.259L576.274 85.9692C576.834 85.1291 578.234 84.8491 579.074 85.4092C579.914 85.9692 580.194 87.3693 579.634 88.2093L449.707 277.219C449.427 278.059 448.867 278.339 448.027 278.339Z" fill="white"/>
<path d="M469.299 98.853C469.299 131.055 447.458 157.936 418.057 166.057L407.416 109.214L469.299 97.7329C469.299 98.013 469.299 98.293 469.299 98.853Z" fill="white"/>
<path d="M463.702 183.414C463.702 183.414 469.303 169.134 453.902 171.094C438.501 173.054 406.859 172.214 376.058 210.296C373.538 213.376 370.737 216.736 367.657 220.376C384.458 235.217 399.859 251.178 415.26 267.419C418.34 260.699 420.58 254.818 422.54 250.898C437.381 221.496 473.503 236.617 467.903 204.696C467.903 204.976 477.143 185.375 463.702 183.414Z" fill="#FFCC3E"/>
<path d="M371.575 215.896C348.054 244.457 297.651 298.22 259.289 272.739C218.127 245.297 212.527 215.616 212.527 215.616L182.005 216.456C155.964 272.739 175.565 364.024 288.971 356.743C377.736 350.863 404.617 293.74 417.498 263.778C402.657 246.697 386.976 231.296 371.575 215.896Z" fill="#7331A6"/>
<path d="M287.576 276.656C249.214 276.656 224.012 249.215 218.132 227.094C217.852 225.973 218.412 224.853 219.532 224.573C220.652 224.293 221.772 224.853 222.052 225.973C228.213 249.775 259.014 280.296 304.937 270.496C337.138 263.495 362.9 222.613 363.18 222.333C363.74 221.213 365.14 220.933 365.98 221.773C367.1 222.333 367.38 223.733 366.54 224.573C365.42 226.253 339.658 267.416 305.497 274.696C299.616 276.096 293.456 276.656 287.576 276.656Z" fill="white"/>
<path d="M463.147 204.416C451.665 204.696 441.024 207.497 430.662 212.817C428.982 213.658 430.382 216.178 432.062 215.338C441.864 210.297 451.945 207.497 463.147 207.217C464.827 207.217 464.827 204.416 463.147 204.416Z" fill="#212429"/>
<path d="M455.58 185.376C446.619 185.936 437.937 187.896 429.536 191.537C427.856 192.097 428.696 194.897 430.376 194.337C438.497 190.976 446.899 189.016 455.58 188.456C457.541 188.176 457.541 185.376 455.58 185.376Z" fill="#212429"/>
<path d="M295.695 357.023C246.972 357.023 206.65 322.301 188.169 287.019C187.609 285.899 188.169 284.779 189.009 284.219C190.129 283.659 191.249 284.219 191.809 285.059C211.13 322.021 255.652 358.703 308.295 351.983C309.415 351.703 310.535 352.543 310.535 353.663C310.815 354.783 309.975 355.903 308.855 355.903C304.375 356.743 300.175 357.023 295.695 357.023Z" fill="white"/>
<path d="M817.644 70.0061V250.896H636.755V198.533C614.353 198.533 596.152 180.332 596.152 157.931C596.152 131.609 614.353 117.329 636.755 117.329V70.0061H817.644Z" fill="#D735B3"/>
<path d="M729.162 114.251H672.313C671.192 114.251 670.072 113.411 670.072 112.011C670.072 110.611 670.912 109.771 672.313 109.771H729.162C730.282 109.771 731.402 110.611 731.402 112.011C731.402 113.411 730.282 114.251 729.162 114.251Z" fill="white"/>
<path d="M729.162 134.135H672.313C671.192 134.135 670.072 133.295 670.072 131.894C670.072 130.494 670.912 129.654 672.313 129.654H729.162C730.282 129.654 731.402 130.494 731.402 131.894C731.402 133.295 730.282 134.135 729.162 134.135Z" fill="white"/>
<path d="M817.64 148.693V250.898H732.516C725.235 239.978 721.035 226.817 721.035 212.816C721.035 167.454 752.117 143.373 790.479 143.373C800.279 143.373 809.52 145.333 817.64 148.693Z" fill="white"/>
<path d="M625.553 664.757L546.869 684.918L497.306 697.799L464.265 569.552L501.507 560.032C497.306 544.071 507.107 527.83 523.068 523.91C541.829 519.15 555.269 529.51 559.19 545.471L592.791 536.791L601.472 570.392L625.553 664.757Z" fill="#F2F2F9"/>
<path d="M522.505 615.197L505.982 619.398L495.62 622.198L488.619 595.314L515.783 588.313L517.464 595.314L522.505 615.197Z" fill="#E4E4EF"/>
<path d="M556.392 606.797L539.87 610.997L529.508 613.798L522.507 586.913L549.671 579.912L551.351 586.913L556.392 606.797Z" fill="#E4E4EF"/>
<path d="M625.547 664.756L546.863 684.917C544.903 677.077 544.062 668.957 544.062 660.836C544.062 620.794 567.304 586.072 601.466 569.831L625.547 664.756Z" fill="#E4E4EF"/>
<path d="M854.606 426.184L836.405 467.906C816.524 459.225 794.963 464.826 784.882 488.067C776.202 507.948 785.442 530.909 805.323 539.59L785.162 585.792L625.554 516.348L672.876 407.703L694.997 356.74L750.44 380.821L768.921 388.942L831.085 416.103L854.606 426.184Z" fill="#E4E4EF"/>
<path d="M768.636 455.306C768.636 486.108 748.474 500.389 723.553 500.389C698.632 500.389 678.471 480.227 678.471 455.306C678.471 430.385 698.632 410.224 723.553 410.224C748.474 410.224 768.636 430.385 768.636 455.306Z" fill="#F2F2F9"/>
<path d="M709.548 476.868L702.827 444.663C702.547 443.543 703.387 442.423 704.507 442.143C705.627 441.863 706.747 442.703 707.027 443.823L712.348 469.587L749.874 442.423C750.714 441.863 752.115 441.863 752.675 442.983C753.235 443.823 753.235 445.223 752.115 445.783L709.548 476.868Z" fill="white"/>
<path d="M831.082 415.827C824.641 420.588 816.52 423.388 807.839 423.388C787.675 423.388 771.152 408.266 768.912 388.663L831.082 415.827Z" fill="#F2F2F9"/>
<path d="M566.186 55.1656L600.351 33.6021L603.432 71.9683L566.186 55.1656Z" fill="#E4E4EF"/>
<path d="M395.378 608.754C394.818 608.754 394.538 608.474 393.978 608.194C393.138 607.354 392.858 606.233 393.698 605.113L402.939 593.071C403.779 592.231 404.9 591.951 406.02 592.791C406.86 593.631 407.14 594.751 406.3 595.872L397.058 607.914C396.498 608.474 395.938 608.754 395.378 608.754Z" fill="#E4E4EF"/>
<path d="M629.465 54.8863C628.625 54.8863 628.065 54.6063 627.785 53.7661C627.224 52.6459 627.505 51.5258 628.345 50.9657L659.15 32.2026C660.27 31.6425 661.39 31.9226 661.95 32.7627C662.51 33.8829 662.23 35.0031 661.39 35.5632L630.585 54.3262C630.305 54.8863 629.745 54.8863 629.465 54.8863Z" fill="#E4E4EF"/>
<path d="M631.706 301.581C631.426 301.581 631.146 301.581 630.866 301.301C629.746 300.741 629.466 299.621 630.026 298.501L642.908 273.577C643.468 272.456 644.588 272.176 645.709 272.736C646.829 273.297 647.109 274.417 646.549 275.537L633.667 300.461C633.107 301.301 632.266 301.581 631.706 301.581Z" fill="#E4E4EF"/>
<path d="M438.783 574.591C438.503 574.591 438.223 574.591 437.943 574.311L410.499 561.989C409.378 561.429 409.098 560.308 409.378 559.188C409.938 558.068 411.059 557.788 412.179 558.068L439.623 570.39C440.744 570.95 441.024 572.07 440.743 573.19C440.463 574.311 439.623 574.591 438.783 574.591Z" fill="#E4E4EF"/>
<path d="M595.592 464.266C595.032 464.266 594.192 463.986 593.911 463.426C593.351 462.586 593.631 461.186 594.472 460.625L605.393 453.624C606.513 453.064 607.634 453.344 608.194 454.184C608.754 455.024 608.474 456.425 607.634 456.985L596.712 463.986C596.432 464.266 596.152 464.266 595.592 464.266Z" fill="#E4E4EF"/>
<path d="M644.588 556.67C644.028 556.67 643.468 556.39 643.188 556.11L628.066 540.708C627.226 539.867 627.226 538.467 628.066 537.627C628.906 536.787 630.306 536.787 631.146 537.627L646.269 553.03C647.109 553.87 647.109 555.27 646.269 556.11C645.709 556.67 645.148 556.67 644.588 556.67Z" fill="#E4E4EF"/>
<path d="M709.555 334.063C708.715 334.063 707.875 333.503 707.594 332.663L694.152 300.178C693.592 299.058 694.152 297.938 695.273 297.377C696.393 296.817 697.513 297.378 698.073 298.498L711.515 330.983C712.075 332.103 711.515 333.223 710.395 333.783C710.115 334.063 709.835 334.063 709.555 334.063Z" fill="#E4E4EF"/>
<path d="M611.274 21.0034C610.434 21.0034 609.873 20.7234 609.313 19.8832L599.792 3.0805C599.232 1.96032 599.512 0.84014 600.632 0.280049C601.752 -0.280042 602.872 -9.51445e-06 603.432 1.12017L612.954 17.9229C613.514 19.0431 613.234 20.1633 612.114 20.7234C612.114 20.7234 611.554 21.0034 611.274 21.0034Z" fill="#E4E4EF"/>
</svg>
