<svg xmlns="http://www.w3.org/2000/svg" viewBox="0 0 44.634 46.346">
  <defs>
    <style>
      .cls-1 {
        opacity: 0.5;
      }
    </style>
  </defs>
  <g id="noun_Download_213406_1_" data-name="noun_Download_213406 (1)" class="cls-1" transform="translate(-10.9 -9.4)">
    <path id="Path_132" data-name="Path 132" d="M14.724,23.041a7.442,7.442,0,0,1,7.42-7.42,6.907,6.907,0,0,1,1.084.057,13.129,13.129,0,0,1,24.086,4.338,11.736,11.736,0,0,1,8.219,11.13A11.573,11.573,0,0,1,44.974,42.732H38.182V39.365H44.8A8.274,8.274,0,0,0,52.166,31.2a8.177,8.177,0,0,0-6.621-8.1l-1.313-.228-.114-1.313a9.731,9.731,0,0,0-18.493-3.2l-.685,1.427-1.427-.514a3.837,3.837,0,0,0-1.37-.228,4.007,4.007,0,0,0-4,4,3.638,3.638,0,0,0,.228,1.37l.514,1.313-1.256.742a6.708,6.708,0,0,0-3.31,5.765c0,3.653,2.854,6.963,6.278,7.135h7.648v3.367H20.432C15.181,42.447,10.9,37.71,10.9,32.173a10.2,10.2,0,0,1,3.938-7.991A7.027,7.027,0,0,1,14.724,23.041ZM31.5,30.4V49.239L27.966,45.7l-2.4,2.4,7.648,7.648,7.591-7.591L38.468,45.7l-3.539,3.539V30.4H31.5Z"/>
  </g>
</svg>
