<svg xmlns="http://www.w3.org/2000/svg" viewBox="0 0 46.942 47.778">
  <defs>
    <style>
      .cls-1 {
        opacity: 0.5;
      }
    </style>
  </defs>
  <g id="noun_Move_Document_225973" data-name="noun_Move Document_225973" class="cls-1" transform="translate(-7.9 -7.2)">
    <path id="Path_131" data-name="Path 131" d="M13.81,54.978a5.877,5.877,0,0,1-5.91-5.91V19.521a2.416,2.416,0,0,1,.223-1.059,3.186,3.186,0,0,1,.613-.892L18.771,7.925a2.745,2.745,0,0,1,.836-.558,3.157,3.157,0,0,1,1-.167H39.956a5.877,5.877,0,0,1,5.91,5.91V31.228a3.688,3.688,0,0,0-1.394-.167,10.742,10.742,0,0,0-1.338.056V13.054a3.117,3.117,0,0,0-3.122-3.122H21.5v4.516a5.949,5.949,0,0,1-5.91,5.91H10.632V49.013a3.117,3.117,0,0,0,3.122,3.122H33.6a14.128,14.128,0,0,0,2.676,2.788H13.81Zm30.663-.167a10.37,10.37,0,1,1,10.37-10.37A10.35,10.35,0,0,1,44.472,54.811Zm6.467-11.763H42.8l2.119-2.119-1.951-1.951L37.5,44.441l5.519,5.519,1.951-1.951-2.119-2.119H51V43.048Z"/>
  </g>
</svg>
